<svg xmlns="http://www.w3.org/2000/svg" width="49.5" height="32.935" viewBox="0 0 49.5 32.935">
  <g id="Group_1733" data-name="Group 1733" transform="translate(-222.132 -181.654)">
    <g id="Group_1838" data-name="Group 1838" transform="translate(222.132 181.654)">
      <g id="Group_1837" data-name="Group 1837">
        <path id="Path_1803" data-name="Path 1803" d="M530.022,356.83h-2.16a1.445,1.445,0,0,0-.313-.752,1.624,1.624,0,0,0-1.169-.35,1.745,1.745,0,0,0-1.117.268.693.693,0,0,0-.239.551c0,.327.455.588,1.355.789a21.468,21.468,0,0,1,2.22.573c.119.045.223.082.3.119a2.087,2.087,0,0,1,1.37,1.967,2.492,2.492,0,0,1-1.333,2.346c-.112.06-.216.112-.335.164a5.044,5.044,0,0,1-2,.372,5.476,5.476,0,0,1-2.726-.6,2.573,2.573,0,0,1-.978-.955,2.686,2.686,0,0,1-.325-1.346h2.264a1.071,1.071,0,0,0,.417.9,2.325,2.325,0,0,0,1.407.328,1.7,1.7,0,0,0,1.117-.313.7.7,0,0,0,.283-.551c0-.35-.446-.625-1.333-.819a14.511,14.511,0,0,1-2.5-.678,2.076,2.076,0,0,1-1.355-1.989,2.6,2.6,0,0,1,.708-1.854,3.5,3.5,0,0,1,2.674-.946,5.588,5.588,0,0,1,2.346.417.818.818,0,0,1,.142.075,2.359,2.359,0,0,1,.959.916A2.73,2.73,0,0,1,530.022,356.83Z" transform="translate(-480.768 -330.069)" fill="#595959"/>
        <path id="Path_1804" data-name="Path 1804" d="M562.641,333.587a.176.176,0,0,0-.03-.112.16.16,0,0,0-.1-.074,1.073,1.073,0,0,0-.142-.023h-.342v.417h.342a.317.317,0,0,0,.2-.059A.188.188,0,0,0,562.641,333.587Zm.179-.224a.327.327,0,0,1,.067.2.363.363,0,0,1-.112.268.43.43,0,0,1-.29.127.376.376,0,0,1,.119.074l.208.276.164.275h-.268l-.127-.223a1.265,1.265,0,0,0-.208-.3.1.1,0,0,0-.03-.022l-.178-.052h-.134v.6h-.224v-1.4h.484c.03,0,.06.007.082.007a.8.8,0,0,1,.268.037A.325.325,0,0,1,562.82,333.363Z" transform="translate(-514.542 -312.1)" fill="#595959"/>
        <path id="Path_1805" data-name="Path 1805" d="M558.986,330.047a1.08,1.08,0,0,0-.142-.544,1.049,1.049,0,0,0-.4-.4,1.15,1.15,0,0,0-.529-.141h-.007a1.148,1.148,0,0,0-.528.141,1.046,1.046,0,0,0-.4.4,1.057,1.057,0,0,0,0,1.08,1.01,1.01,0,0,0,.395.394,1.068,1.068,0,0,0,.536.142h.007a1.073,1.073,0,0,0,.537-.142,1,1,0,0,0,.394-.394A1.074,1.074,0,0,0,558.986,330.047Zm.216,0a1.275,1.275,0,0,1-.172.64,1.127,1.127,0,0,1-.476.476,1.247,1.247,0,0,1-.641.172h-.007a1.243,1.243,0,0,1-.64-.172,1.128,1.128,0,0,1-.477-.476,1.271,1.271,0,0,1-.171-.64,1.289,1.289,0,0,1,.171-.656,1.2,1.2,0,0,1,.484-.476,1.409,1.409,0,0,1,.633-.171h.007a1.324,1.324,0,0,1,.633.171,1.146,1.146,0,0,1,.484.476A1.293,1.293,0,0,1,559.2,330.047Z" transform="translate(-510.074 -308.277)" fill="#595959"/>
        <path id="Path_1806" data-name="Path 1806" d="M397.7,192.9l6.115,10.189h-9.824l-5.839-9.735-4.424-7.366,4.424-2.659,2.785-1.676Z" transform="translate(-361.244 -181.654)" fill="#595959"/>
        <path id="Path_1807" data-name="Path 1807" d="M461.346,359.18v4.179h-2.034V362.9a4.351,4.351,0,0,1-2.383.708h-.023a4.424,4.424,0,0,1,0-8.848h.023a4.359,4.359,0,0,1,2.383.707v-.484h2.034Zm-2.034.462v-.924a2.436,2.436,0,0,0-2.383-1.967h-.023a2.432,2.432,0,0,0,0,4.864h.023A2.443,2.443,0,0,0,459.312,359.642Z" transform="translate(-420.448 -330.669)" fill="#595959"/>
        <path id="Path_1808" data-name="Path 1808" d="M392.729,342.778v4.179H390.7v-.462a4.37,4.37,0,0,1-2.384.708h-.022a4.424,4.424,0,0,1,0-8.848h.022a4.378,4.378,0,0,1,2.384.707V335.7h2.033Zm-2.033.462v-.923a2.437,2.437,0,0,0-2.384-1.967h-.022a2.432,2.432,0,0,0,0,4.864h.022A2.443,2.443,0,0,0,390.7,343.24Z" transform="translate(-361.381 -314.267)" fill="#595959"/>
        <path id="Path_1809" data-name="Path 1809" d="M334.427,246.261l2.4,4.008h-9.817l-5.451-9.072-.238-.4.238-.141,6.979-4.2Z" transform="translate(-307.517 -228.833)" fill="#595959"/>
        <rect id="Rectangle_1357" data-name="Rectangle 1357" width="2.212" height="8.603" transform="translate(19.499 24.087)" fill="#595959"/>
        <rect id="Rectangle_1358" data-name="Rectangle 1358" width="2.212" height="1.944" transform="translate(19.499 21.48)" fill="#595959"/>
        <path id="Path_1810" data-name="Path 1810" d="M300.243,342.778v4.179H298.21v-.462a4.391,4.391,0,0,1-2.391.708H295.8a4.424,4.424,0,0,1,0-8.848h.022a4.4,4.4,0,0,1,2.391.707V335.7h2.033Zm-2.033.462v-.923a2.439,2.439,0,0,0-2.391-1.967H295.8a2.432,2.432,0,0,0,0,4.864h.022A2.445,2.445,0,0,0,298.21,343.24Z" transform="translate(-281.757 -314.267)" fill="#595959"/>
        <path id="Path_1811" data-name="Path 1811" d="M267.873,294.151l2.011,3.352h-9.824l-1.1-1.84,7.217-4.335Z" transform="translate(-253.833 -276.068)" fill="#595959"/>
        <path id="Path_1812" data-name="Path 1812" d="M230.973,359.18v4.179H228.94V362.9a4.4,4.4,0,0,1-2.391.708h-.023a4.424,4.424,0,0,1,0-8.848h.023a4.405,4.405,0,0,1,2.391.707v-.484h2.033Zm-2.033.462v-.924a2.439,2.439,0,0,0-2.391-1.967h-.023a2.432,2.432,0,0,0,0,4.864h.023A2.445,2.445,0,0,0,228.94,359.642Z" transform="translate(-222.132 -330.669)" fill="#595959"/>
      </g>
    </g>
  </g>
</svg>
