<?xml version="1.0" encoding="UTF-8"?>
<svg xmlns="http://www.w3.org/2000/svg" width="28.631" height="28.631" viewBox="0 0 28.631 28.631">
  <g id="Group_105367" data-name="Group 105367" transform="translate(-7.8 -7.9)">
    <path id="Path_78306" data-name="Path 78306" d="M33.467,7.9H10.823A3.036,3.036,0,0,0,7.8,10.923V33.508a3.036,3.036,0,0,0,3.023,3.023H33.408a3.036,3.036,0,0,0,3.023-3.023V10.864A2.935,2.935,0,0,0,33.467,7.9ZM10.823,9.678H33.408a1.252,1.252,0,0,1,1.245,1.245V14.6H9.638V10.923A1.2,1.2,0,0,1,10.823,9.678ZM33.467,34.694H10.823a1.252,1.252,0,0,1-1.245-1.245V16.258H34.653V33.449A1.2,1.2,0,0,1,33.467,34.694Z" fill="#fff"></path>
    <path id="Path_78307" data-name="Path 78307" d="M24.948,31.532a.914.914,0,0,0-1.245,0l-2.786,2.786a.86.86,0,0,0,0,1.245l2.668,2.668a.859.859,0,0,0,1.245,0,.914.914,0,0,0,0-1.245l-2.075-2.075,2.134-2.134A.859.859,0,0,0,24.948,31.532Z" transform="translate(-5.233 -9.523)" fill="#fff"></path>
    <path id="Path_78308" data-name="Path 78308" d="M37.221,31.517a.859.859,0,0,0-1.245,0,.914.914,0,0,0,0,1.245l2.075,2.075L35.917,36.97a.859.859,0,0,0,0,1.245.914.914,0,0,0,1.245,0l2.786-2.786a.86.86,0,0,0,0-1.245C39,33.354,38.11,32.465,37.221,31.517Z" transform="translate(-11.341 -9.509)" fill="#fff"></path>
    <path id="Path_78309" data-name="Path 78309" d="M31.765,28.979a.848.848,0,0,0-1.067.593c-.474,2.43-.948,4.8-1.482,7.232a5.02,5.02,0,0,1-.237,1.008.863.863,0,1,0,1.66.474c.474-2.43.948-4.8,1.482-7.232a5.02,5.02,0,0,1,.237-1.008A.848.848,0,0,0,31.765,28.979Z" transform="translate(-8.612 -8.572)" fill="#fff"></path>
    <path id="Path_78310" data-name="Path 78310" d="M34.8,15.608a1.3,1.3,0,1,0-1.3-1.3A1.316,1.316,0,0,0,34.8,15.608Z" transform="translate(-10.466 -2.077)" fill="#fff"></path>
    <path id="Path_78311" data-name="Path 78311" d="M40.7,15.608a1.3,1.3,0,1,0-1.3-1.3A1.244,1.244,0,0,0,40.7,15.608Z" transform="translate(-12.865 -2.077)" fill="#fff"></path>
    <path id="Path_78312" data-name="Path 78312" d="M46.5,15.608a1.3,1.3,0,1,0-1.3-1.3A1.316,1.316,0,0,0,46.5,15.608Z" transform="translate(-15.23 -2.077)" fill="#fff"></path>
  </g>
</svg>
