<?xml version="1.0" encoding="UTF-8"?>
<svg xmlns="http://www.w3.org/2000/svg" width="21.873" height="11.355" viewBox="0 0 21.873 11.355">
  <g id="blockchain-tech-icon" transform="translate(-2570.123 -646.528)">
    <path id="Blockchain_" data-name="Blockchain " d="M162.567,477.041h-7.828a.806.806,0,0,0-.806.806v2.283h-3.006v-3.98a.807.807,0,0,0-.793-.95h-7.828a.806.806,0,0,0-.806.806v7.9a.806.806,0,0,0,.806.806h7.815a.806.806,0,0,0,.806-.806v-2.161h3.006v4a.806.806,0,0,0,.806.806h7.815a.806.806,0,0,0,.806-.806v-7.758a.807.807,0,0,0-.793-.95ZM149.318,483.1h-6.206v-6.286h6.2v3.319H147.45a.806.806,0,1,0,0,1.612h1.867Zm12.431,1.842h-6.2v-3.2h1.364a.806.806,0,1,0,0-1.612h-1.364v-1.477h6.2Z" transform="translate(2428.623 171.328)" fill="#fff"></path>
  </g>
</svg>
