<?xml version="1.0" encoding="UTF-8"?>
<svg xmlns="http://www.w3.org/2000/svg" width="16.183" height="16.135" viewBox="0 0 16.183 16.135">
  <g id="Data_analytics" data-name="Data analytics" transform="translate(-769.595 -764.616)">
    <path id="Path_1527" data-name="Path 1527" d="M785.1,769.752H770.273a.677.677,0,0,0-.677.677v14.779a.678.678,0,0,0,.677.678H785.1a.678.678,0,0,0,.678-.678V770.43A.678.678,0,0,0,785.1,769.752Zm-.678,14.78H770.951V771.108h13.473Z" transform="translate(0 -5.136)" fill="#fff"></path>
    <path id="Path_1528" data-name="Path 1528" d="M785.5,797.444a.678.678,0,0,0,.9-.332l1.6-3.48,2.2,2.309a.678.678,0,0,0,1.055-.092l4.08-6.139a.678.678,0,0,0-1.129-.75l-3.61,5.433-2.3-2.419a.678.678,0,0,0-1.107.185l-2.014,4.389A.678.678,0,0,0,785.5,797.444Z" transform="translate(-12.606 -20.306)" fill="#fff"></path>
  </g>
</svg>
