<?xml version="1.0" encoding="UTF-8"?>
<svg xmlns="http://www.w3.org/2000/svg" width="26.694" height="26.694" viewBox="0 0 26.694 26.694">
  <g id="Deployment" transform="translate(0 -0.038)">
    <path id="Path_1794" data-name="Path 1794" d="M251.18,172.234a2.347,2.347,0,1,0,3.318,0A2.347,2.347,0,0,0,251.18,172.234Zm2.213,2.213a.783.783,0,1,1,0-1.106.783.783,0,0,1,0,1.106Z" transform="translate(-237.426 -162.576)" fill="#fff"></path>
    <path id="Path_1795" data-name="Path 1795" d="M25.374.251l-1.431,1.43c-4.826,0-6.74.1-11.3,4.654L9.624,9.359,4.5,8.337a.783.783,0,0,0-.824.364L.357,14.235a.783.783,0,0,0,.824,1.17l4.211-.842L4.712,16.6a.783.783,0,0,0,.189.8h0A3.892,3.892,0,0,0,2.686,18.51C1.31,19.889.3,23.251.005,25.863a.783.783,0,0,0,.864.864c2.61-.29,5.974-1.3,7.352-2.683A3.885,3.885,0,0,0,9.328,21.83a.783.783,0,0,0,.8.189l2.041-.68-.842,4.211a.783.783,0,0,0,1.17.824l5.533-3.318a.782.782,0,0,0,.364-.824L17.37,17.108l3.024-3.024c4.555-4.555,4.654-6.469,4.654-11.3L26.48,1.358A.783.783,0,0,0,25.374.251ZM4.735,9.98l3.559.712L6.175,12.81l-3.566.713Zm2.38,12.958c-.822.822-3.116,1.69-5.409,2.089.4-2.294,1.267-4.587,2.089-5.409a2.347,2.347,0,1,1,3.318,3.318Zm2.978-2.555L6.35,16.64,6.9,14.98l4.849,4.848ZM16.752,22l-3.543,2.126.713-3.566,2.119-2.119Zm2.535-9.019L13.2,19.064,7.668,13.531l6.086-6.086a27.032,27.032,0,0,1,2.38-2.161A8.611,8.611,0,0,0,21.448,10.6a27.041,27.041,0,0,1-2.161,2.38Zm3.082-3.73a7.046,7.046,0,0,1-4.887-4.885c1.776-1.018,3.363-1.107,6-1.114-.006,2.637-.094,4.224-1.112,6Z" transform="translate(0 0)" fill="#fff"></path>
  </g>
</svg>
