<?xml version="1.0" encoding="UTF-8"?>
<svg xmlns="http://www.w3.org/2000/svg" width="23.948" height="23.947" viewBox="0 0 23.948 23.947">
  <g id="Group_1766" data-name="Group 1766" transform="translate(70.588 -113.588)">
    <path id="Path_1796" data-name="Path 1796" d="M-48.043,115.694a2.107,2.107,0,0,0-2.1-2.106H-65.63a2.108,2.108,0,0,0-2.1,2.106v.748h-.749a2.107,2.107,0,0,0-2.1,2.106,2.107,2.107,0,0,0,2.1,2.1h.749v2.807h-.749a2.107,2.107,0,0,0-2.1,2.1,2.107,2.107,0,0,0,2.1,2.106h.749v2.8h-.749a2.106,2.106,0,0,0-2.1,2.1,2.106,2.106,0,0,0,2.1,2.1h.749v.7a2.165,2.165,0,0,0,.605,1.5,2.062,2.062,0,0,0,1.5.651h14.08a4.94,4.94,0,0,0,4.91-4.958,4.89,4.89,0,0,0-1.4-3.433Zm-21.141,2.853a.7.7,0,0,1,.7-.7h1.446a.7.7,0,0,1,.7.7.7.7,0,0,1-.7.7h-1.45A.7.7,0,0,1-69.184,118.547Zm0,7.016a.7.7,0,0,1,.7-.7h1.446a.7.7,0,0,1,.7.7.7.7,0,0,1-.7.7h-1.45a.7.7,0,0,1-.7-.7Zm0,7.017a.7.7,0,0,1,.7-.7h1.446a.7.7,0,0,1,.7.7.7.7,0,0,1-.7.7h-1.45a.7.7,0,0,1-.7-.7Zm3.555,3.555a.746.746,0,0,1-.7-.749v-.823a2.106,2.106,0,0,0,1.4-1.984,2.106,2.106,0,0,0-1.4-1.984v-3.049a2.108,2.108,0,0,0,1.4-1.985,2.108,2.108,0,0,0-1.4-1.984v-3.047a2.108,2.108,0,0,0,1.4-1.984,2.108,2.108,0,0,0-1.4-1.985v-.868a.7.7,0,0,1,.7-.7h15.483a.7.7,0,0,1,.7.7v12.448a4.877,4.877,0,0,0-2.1-.474,4.917,4.917,0,0,0-4.91,4.91,4.967,4.967,0,0,0,1.492,3.555Zm14.08,0a3.536,3.536,0,0,1-3.508-3.555,3.513,3.513,0,0,1,3.508-3.508,3.513,3.513,0,0,1,3.508,3.508,3.535,3.535,0,0,1-3.509,3.556Z" fill="#fff"></path>
    <path id="Path_1797" data-name="Path 1797" d="M-56.563,120.329h4.21a.7.7,0,0,0,.5-.206.7.7,0,0,0,.2-.5.7.7,0,0,0-.7-.7h-4.21a.7.7,0,0,0-.7.7A.7.7,0,0,0-56.563,120.329Z" transform="translate(0.803 0.322)" fill="#fff"></path>
    <path id="Path_1798" data-name="Path 1798" d="M-56.563,125.623h4.21a.7.7,0,0,0,.5-.206.7.7,0,0,0,.2-.5.7.7,0,0,0-.7-.7h-4.21a.7.7,0,0,0-.7.7A.7.7,0,0,0-56.563,125.623Z" transform="translate(0.803 0.641)" fill="#fff"></path>
    <path id="Path_1799" data-name="Path 1799" d="M-51.19,130.917h-.7v-.7a.7.7,0,0,0-.7-.7.7.7,0,0,0-.5.2.7.7,0,0,0-.206.5v1.4a.7.7,0,0,0,.7.7h1.4a.7.7,0,0,0,.7-.7A.7.7,0,0,0-51.19,130.917Z" transform="translate(1.043 0.96)" fill="#fff"></path>
    <path id="Path_1800" data-name="Path 1800" d="M-59.5,117.808l-2.31,2.31-1.1-1.1a.7.7,0,0,0-.992,0,.7.7,0,0,0,0,.992l1.6,1.6a.7.7,0,0,0,.5.206.7.7,0,0,0,.5-.206l2.807-2.807a.7.7,0,0,0,0-.992.7.7,0,0,0-.5-.205.7.7,0,0,0-.5.206Z" transform="translate(0.391 0.242)" fill="#fff"></path>
    <path id="Path_1801" data-name="Path 1801" d="M-59.5,123.1l-2.308,2.313-1.1-1.1a.7.7,0,0,0-.992,0,.7.7,0,0,0,0,.992l1.6,1.6a.7.7,0,0,0,.5.206.7.7,0,0,0,.5-.206l2.807-2.807a.7.7,0,0,0,0-.992.7.7,0,0,0-.5-.208A.7.7,0,0,0-59.5,123.1Z" transform="translate(0.39 0.561)" fill="#fff"></path>
    <path id="Path_1802" data-name="Path 1802" d="M-59.5,128.4l-2.31,2.31-1.1-1.1a.7.7,0,0,0-.992,0,.7.7,0,0,0,0,.992l1.6,1.6a.7.7,0,0,0,.5.206.7.7,0,0,0,.5-.206l2.807-2.807a.7.7,0,0,0,0-.992A.7.7,0,0,0-59.5,128.4Z" transform="translate(0.391 0.88)" fill="#fff"></path>
  </g>
</svg>
