<svg xmlns="http://www.w3.org/2000/svg" width="90.112" height="24.098" viewBox="0 0 90.112 24.098">
  <g id="Group_103736" data-name="Group 103736" transform="translate(-4624 -837)">
    <path id="Path_74510" data-name="Path 74510" d="M104.329.582A5.56,5.56,0,0,0,104.246,0C104.288.208,104.308.395,104.329.582Z" transform="translate(4553.304 837)" fill="#606060"/>
    <path id="Path_74511" data-name="Path 74511" d="M17.991,12.362c-.208.021-16.68,4.217-16.68,4.217-.062.021-.1.021-.166.042H1.124a1.858,1.858,0,0,0-.789.54,1.617,1.617,0,0,0,.291,2.264l2.43,1.869a.909.909,0,0,0,.519.166.835.835,0,0,0,.685-.353l1.807-2.368.021-.021L6.878,17.7l1.039.789a1.314,1.314,0,0,1,.229,1.828L5.8,23.392,3.762,26.009a1.314,1.314,0,0,0,.229,1.828l1.039.789L6.213,27.09l3.2-4.113a1.3,1.3,0,0,1,2.015,1.641L9.911,26.57l-1.142,1.5A1.314,1.314,0,0,0,9,29.894l.021.021,1,.769L11.2,29.146l3.635-4.695a1.32,1.32,0,0,1,1.786-.187l1.039.789-.789,1.018-2.326,3.012a.845.845,0,0,0-.166.5.877.877,0,0,0,.332.686l2.326,1.869a1.612,1.612,0,0,0,2.6-1.184v-.166s.042-16.929,0-17.137a1.31,1.31,0,0,0-.6-.956A1.225,1.225,0,0,0,17.991,12.362Z" transform="translate(4624 828.626)" fill="#606060"/>
    <path id="Path_74513" data-name="Path 74513" d="M195.532,29.432a2.959,2.959,0,0,0-2.43,1.122v-.914h-1.288a1.259,1.259,0,0,0-1.267,1.267V38.53h1.288a1.259,1.259,0,0,0,1.267-1.267V33.5a1.634,1.634,0,0,1,1.641-1.7,1.617,1.617,0,0,1,1.62,1.7V38.53h1.288a1.259,1.259,0,0,0,1.267-1.267V32.817a3.3,3.3,0,0,0-.976-2.43A3.392,3.392,0,0,0,195.532,29.432Z" transform="translate(4494.777 817.04)" fill="#606060"/>
    <path id="Path_74514" data-name="Path 74514" d="M258.581,30.782a4.572,4.572,0,0,0-3.386-1.35,4.619,4.619,0,0,0-3.407,1.35,4.432,4.432,0,0,0-1.35,3.324,4.51,4.51,0,0,0,1.35,3.344,4.684,4.684,0,0,0,3.407,1.329,4.6,4.6,0,0,0,3.386-1.329,4.528,4.528,0,0,0,1.371-3.344A4.45,4.45,0,0,0,258.581,30.782Zm-1.911,4.861a2.082,2.082,0,0,1-2.971,0,2.153,2.153,0,0,1-.6-1.516,2.084,2.084,0,0,1,.6-1.516,1.974,1.974,0,0,1,1.5-.623,1.909,1.909,0,0,1,1.475.644,2.053,2.053,0,0,1,.623,1.516A2.108,2.108,0,0,1,256.67,35.643Z" transform="translate(4454.161 817.04)" fill="#606060"/>
    <path id="Path_74515" data-name="Path 74515" d="M120.423,19.532v3.261a4.074,4.074,0,0,0-2.472-.831,3.883,3.883,0,0,0-3.012,1.329,4.761,4.761,0,0,0-1.2,3.344,4.868,4.868,0,0,0,1.2,3.344,4.084,4.084,0,0,0,5.484.5V31.1h1.267a1.259,1.259,0,0,0,1.267-1.267V18.265H121.69A1.259,1.259,0,0,0,120.423,19.532Zm-2.015,9.244a2.145,2.145,0,0,1,0-4.279,1.893,1.893,0,0,1,1.413.623,2.1,2.1,0,0,1,.582,1.516A2.044,2.044,0,0,1,118.408,28.776Z" transform="translate(4546.869 824.614)" fill="#606060"/>
    <path id="Path_74516" data-name="Path 74516" d="M89.994,35.128a1.259,1.259,0,0,0,1.267-1.267v-.125a4.457,4.457,0,0,0-1.329-2.825,4.868,4.868,0,0,0-6.73,0,4.74,4.74,0,0,0,.042,6.668,4.83,4.83,0,0,0,3.469,1.329A4.708,4.708,0,0,0,90.97,36.5l-1.828-.415a1.4,1.4,0,0,0-.291-.042,1.356,1.356,0,0,0-.769.249,2.285,2.285,0,0,1-1.371.415,2.227,2.227,0,0,1-2.181-1.558h5.4Zm-5.422-1.911A2.12,2.12,0,0,1,86.567,31.7a2.227,2.227,0,0,1,2.1,1.516Z" transform="translate(4568.491 816.952)" fill="#606060"/>
    <path id="Path_74517" data-name="Path 74517" d="M167.636,31.41v3.76a1.634,1.634,0,0,1-1.641,1.7,1.617,1.617,0,0,1-1.62-1.7V30.143h-1.288a1.259,1.259,0,0,0-1.267,1.267v4.445a3.3,3.3,0,0,0,.976,2.43,3.371,3.371,0,0,0,2.43.976,2.959,2.959,0,0,0,2.43-1.122v.914h1.288a1.259,1.259,0,0,0,1.267-1.267V30.163h-1.288A1.259,1.259,0,0,0,167.636,31.41Z" transform="translate(4514.259 816.558)" fill="#606060"/>
    <path id="Path_74518" data-name="Path 74518" d="M225.759,19.211v3.261a4.073,4.073,0,0,0-2.472-.831,3.883,3.883,0,0,0-3.012,1.329,4.761,4.761,0,0,0-1.2,3.344,4.868,4.868,0,0,0,1.2,3.344,4.083,4.083,0,0,0,5.484.5v.623h1.267a1.259,1.259,0,0,0,1.267-1.267V17.943h-1.267A1.272,1.272,0,0,0,225.759,19.211Zm-2.015,9.244a2.145,2.145,0,0,1,0-4.279,1.893,1.893,0,0,1,1.413.623,2.1,2.1,0,0,1,.582,1.516A2.044,2.044,0,0,1,223.744,28.454Z" transform="translate(4475.434 824.831)" fill="#606060"/>
    <path id="Path_74519" data-name="Path 74519" d="M149.14,18.2h-.665a3.472,3.472,0,0,0-2.368.831,2.717,2.717,0,0,0-.935,2.1v8.621a1.259,1.259,0,0,0,1.267,1.267h1.288v-6.73h1.932v-.893a1.259,1.259,0,0,0-1.267-1.267h-.665v-.644a.906.906,0,0,1,.956-.914h1.724v-1.08A1.277,1.277,0,0,0,149.14,18.2Z" transform="translate(4525.549 824.656)" fill="#606060"/>
  </g>
</svg>
