<?xml version="1.0" encoding="UTF-8"?>
<svg xmlns="http://www.w3.org/2000/svg" width="24.814" height="24.824" viewBox="0 0 24.814 24.824">
  <path id="noun-design-2844280" d="M107.111,30.114a1.887,1.887,0,0,1,1.341.556l3.064,3.064a1.894,1.894,0,0,1,0,2.681l-5.765,5.766.191.193.178.176.465.463,1.405,1.4,2.041,2.038c.076.076.039.012.07.083a7.151,7.151,0,0,1,.21.7c.232.853.69,2.637,1.694,6.429a.445.445,0,0,1-.556.552c-3.827-1.038-5.612-1.511-6.458-1.747-.423-.118-.616-.18-.682-.208s.008.017-.068-.061h0l-4.254-4.251L94.2,53.73a1.894,1.894,0,0,1-2.681,0l-3.064-3.064a1.888,1.888,0,0,1,0-2.681l.083-.083h0l5.7-5.7L89.13,37.082a4.065,4.065,0,0,1,5.741-5.754l4.938,4.922.191.191,5.775-5.773a1.884,1.884,0,0,1,1.339-.556Zm0,.9a.992.992,0,0,0-.7.29l-5.773,5.773,4.474,4.462,1.386-1.386-2.234-2.232a.451.451,0,0,1,.638-.638l2.234,2.232,2.39-2.39-1.212-1.214a.452.452,0,1,1,.639-.638l1.214,1.212.711-.709a1,1,0,0,0,0-1.405l-3.064-3.064a1,1,0,0,0-.7-.29ZM92,31.047a3.161,3.161,0,0,0-2.234,5.4l1.891,1.9,4.474-4.473-1.9-1.894A3.157,3.157,0,0,0,92,31.051ZM96.77,34.5,92.3,38.974l12.287,12.289,4.493-4.493L96.959,34.692ZM94.88,42.839,89.1,48.621a1,1,0,0,0,0,1.4h0l3.064,3.063a1,1,0,0,0,1.4,0l.709-.711-1.214-1.212a.451.451,0,0,1,.638-.638l1.214,1.212,2.391-2.39-2.23-2.234a.452.452,0,0,1,.638-.639l2.234,2.234,1.4-1.4-4.274-4.275Zm14.6,4.809-4.011,4.008,5.463,1.481L109.6,48.1Z" transform="translate(-87.508 -29.712)" fill="#fff" stroke="#fff" stroke-width="0.5"></path>
</svg>
