<svg id="ikea" xmlns="http://www.w3.org/2000/svg" width="90.277" height="15.789" viewBox="0 0 90.277 15.789">
  <path id="Path_21551" data-name="Path 21551" d="M10.375,15.789c.28,0,.4-.11.243-.28a5.112,5.112,0,0,1-.317-2V2.283a5.112,5.112,0,0,1,.317-2C10.773.118,10.655,0,10.375,0H.22c-.28,0-.39.118-.243.287a5.08,5.08,0,0,1,.317,2V13.506a5.112,5.112,0,0,1-.317,2c-.147.169-.037.28.243.28H10.375Z" transform="translate(0.089)" fill="#595959"/>
  <path id="Path_21552" data-name="Path 21552" d="M31.261,5.634l3.7-5.015c.147-.147.074-.361.074-.449S35.031,0,35.1,0H45.128c.133,0,.074.1.022.169L41.026,5.936a.525.525,0,0,0,.037.714l5.67,8.962c.059.074.11.169-.022.169H34.472c-.074,0-.074-.074-.074-.169s.191-.906.037-1.053L31.268,9.713V13.5a5.112,5.112,0,0,0,.317,2c.147.169.037.28-.243.28H21.488c-.28,0-.4-.11-.243-.28a5.112,5.112,0,0,0,.317-2V2.283a5.112,5.112,0,0,0-.317-2C21.1.118,21.209,0,21.488,0h9.853c.28,0,.4.11.243.28a5.112,5.112,0,0,0-.317,2l-.007,3.358Z" transform="translate(-5.516)" fill="#595959"/>
  <path id="Path_21553" data-name="Path 21553" d="M69.957,9.927a.261.261,0,0,1,.28-.28h3.9a9.514,9.514,0,0,1,1.974.074c.125.125.28.044.28-.191V5.744c0-.236-.155-.317-.28-.191a9.539,9.539,0,0,1-1.974.074h-3.9a.264.264,0,0,1-.28-.28V4.581a.261.261,0,0,1,.28-.28h5.6a5,5,0,0,1,1.974.317c.169.147.28.037.28-.243V0H60.45c-.28,0-.39.14-.243.309a5,5,0,0,1,.317,1.974V13.388a5,5,0,0,1-.317,1.974c-.147.169-.037.28.243.28H78.094V10.995c0-.28-.11-.39-.28-.243a5,5,0,0,1-1.974.317h-5.6a.264.264,0,0,1-.28-.28V9.927Z" transform="translate(-15.787)" fill="#595959"/>
  <path id="Path_21554" data-name="Path 21554" d="M113.393,15.67S107.531,1.737,107.45,1.509a1.438,1.438,0,0,1-.022-.987c.147-.361.022-.442-.228-.442H93.473c-.25,0-.376.081-.228.442a1.394,1.394,0,0,1-.022.987c-.081.228-5.273,14.161-5.273,14.161h8.432c.2,0,.243-.1.177-.228a1.011,1.011,0,0,1,.029-.685l.449-1.5a.623.623,0,0,1,.714-.486h3.712a.619.619,0,0,1,.714.486l.449,1.5a1.01,1.01,0,0,1,.029.685c-.066.14-.022.228.177.228h10.56ZM98.437,9.69c-.133-.007-.147-.147-.11-.243l.913-2.165c.037-.066.059-.125.14-.125s.1.066.14.125l.913,2.165c.037.1.022.228-.11.243Z" transform="translate(-23.116 -0.021)" fill="#595959"/>
</svg>
