<svg xmlns="http://www.w3.org/2000/svg" width="68" height="20.905" viewBox="0 0 68 20.905">
  <g id="Group_2137" data-name="Group 2137" transform="translate(-435.104 -48.885)" opacity="0.9">
    <path id="Path_18228" data-name="Path 18228" d="M855.245,109.435l.166-1.081c.327-.016.637-.038.946-.044.37-.007.74,0,1.217,0v9.59c0,2.917-1,4.669-3.123,5.483a6.753,6.753,0,0,1-7.393-1.778l1.619-1.464c1.42,1.39,3.106,2.106,5.109,1.04a2.9,2.9,0,0,0,1.276-3.217,13.961,13.961,0,0,1-2.7.859,4.648,4.648,0,0,1-5.148-4.472,8.3,8.3,0,0,1,.07-2.249A4.72,4.72,0,0,1,855.245,109.435Zm-.1,4.08c0-2.221-.846-3.286-2.617-3.3a2.9,2.9,0,0,0-2.919,3.218c0,1.974,1.161,3.326,2.835,3.3C854.287,116.711,855.145,115.686,855.145,113.515Z" transform="translate(-375.999 -54.062)" fill="#2b2b2b"/>
    <path id="Path_18229" data-name="Path 18229" d="M701.647,63.839l-.1.846h-2.16v-15.8h2.39v6.323a4.5,4.5,0,0,1,3.906-1.117,5.458,5.458,0,0,1,1.992.775c1.989,1.341,2.713,4.557,1.678,7.077a4.543,4.543,0,0,1-5.235,2.891A12.89,12.89,0,0,1,701.647,63.839Zm.164-4.362c0,2.185.893,3.277,2.667,3.262,1.646-.014,2.807-1.369,2.8-3.267-.006-1.995-1.138-3.3-2.848-3.3-1.8.008-2.62,1.041-2.62,3.3Z" transform="translate(-241.215)" fill="#2b2b2b"/>
    <path id="Path_18230" data-name="Path 18230" d="M557.815,113.187a5.269,5.269,0,0,1-5.56,5.385,5.48,5.48,0,0,1-5.477-5.443,5.358,5.358,0,0,1,5.607-5.467A5.291,5.291,0,0,1,557.815,113.187Zm-2.518-.039a3.005,3.005,0,1,0-5.978-.009,3,3,0,1,0,5.978.009Z" transform="translate(-101.926 -53.647)" fill="#2b2b2b"/>
    <path id="Path_18231" data-name="Path 18231" d="M1003.465,113.711H996.1a2.208,2.208,0,0,0,1.245,2.4,3.635,3.635,0,0,0,4.232-.832l1.588,1.279a5.786,5.786,0,0,1-6.128,1.637,4.924,4.924,0,0,1-3.492-4.544c-.184-2.865,1.078-5.039,3.357-5.782C1000.757,106.608,1003.829,109.255,1003.465,113.711Zm-2.4-1.761a2.484,2.484,0,1,0-4.965,0Z" transform="translate(-509.683 -53.547)" fill="#2b2b2b"/>
    <path id="Path_18232" data-name="Path 18232" d="M1122.665,70.286h2.42v3.485h3.023c.1.171.154.222.159.277.147,1.777.146,1.777-1.662,1.777h-1.478c0,1.776-.053,3.458.022,5.136a1.538,1.538,0,0,0,1.774,1.324,12.21,12.21,0,0,0,1.317-.2l.619,1.774a4.825,4.825,0,0,1-4.493.079,3.386,3.386,0,0,1-1.7-3.336c.01-1.559,0-3.118,0-4.754H1120.7V73.871a6.375,6.375,0,0,1,.675-.088c1.292-.04,1.292-.036,1.295-1.367C1122.665,71.733,1122.665,71.05,1122.665,70.286Z" transform="translate(-625.755 -19.533)" fill="#2b2b2b"/>
    <path id="Path_18233" data-name="Path 18233" d="M440.2,110.822h2.39a2.691,2.691,0,0,1,.1.518c.006,3.577.015,7.154,0,10.732a3.9,3.9,0,0,1-2.53,3.928,4.671,4.671,0,0,1-5.052-1.1l1.494-1.563c.28.175.529.349.794.492a1.779,1.779,0,0,0,2.783-1.491c.031-.406.015-.816.016-1.223v-9.225Z" transform="translate(0 -56.531)" fill="#2b2b2b"/>
    <path id="Path_18234" data-name="Path 18234" d="M493.3,55.246a1.537,1.537,0,1,1-1.525-1.55,1.537,1.537,0,0,1,1.525,1.55Z" transform="translate(-50.307 -4.387)" fill="#2b2b2b"/>
  </g>
</svg>
