<svg xmlns="http://www.w3.org/2000/svg" width="67.862" height="19.543" viewBox="0 0 67.862 19.543">
  <g id="Group_2148" data-name="Group 2148" transform="translate(422.79 -7115.416)">
    <path id="Path_18146" data-name="Path 18146" d="M335.522,552.931a17.712,17.712,0,0,0,5.055-.947l-.921,3.96a33.882,33.882,0,0,1-6.658.719c-7.968.04-11.4-4.055-11.417-8.306-.016-5.691,6.1-11.368,15.951-11.234a19.727,19.727,0,0,1,5.418.842l-1.3,4.673h-.662c-.811-1.066-2.049-1.87-4.493-1.87-4.985,0-8.078,2.731-8.063,6.378.012,3.292,2.849,5.806,7.1,5.786" transform="translate(-700.132 6578.296)" fill="#595959"/>
    <path id="Path_18147" data-name="Path 18147" d="M258.188,537.818l-.3,1.238a1.5,1.5,0,0,1,1.306,2.082l-4.295,15.617,8.588.012.321-1.344a1.51,1.51,0,0,1-1.186-1.866c.032-.13,1.258-4.63,1.258-4.63l3.942-.012a3.01,3.01,0,0,1,2.6,1.029l1.144-4.636h-6.63l.983-3.643,5.763,0c1.057,0,1.8.707,1.8,1.23h.65l1.27-5.073H258.188" transform="translate(-651.599 6577.788)" fill="#595959"/>
    <path id="Path_18148" data-name="Path 18148" d="M181.949,553.944c-.51-.539-4.933-7.429-4.933-7.429l8.081-6.47a3.344,3.344,0,0,1,2.327-1.009l.319-1.246-10.049.008-.315,1.238c.686.04,1.643.65.857,1.378-.1.09-8.073,6.186-8.073,6.186l1.721-6.226a1.986,1.986,0,0,1,1.641-1.335l.315-1.242-9.593,0-.311,1.238a1.5,1.5,0,0,1,1.318,2.09c-3.206,11.568-2.836,10.424-3.046,11.058-.878,3.336-2.291,3.171-2.8,3.206l-.331,1.344h10.034l.339-1.352s-1.6-.319-1.29-1.473c.3-1.138,1.563-5.691,1.563-5.691a71.406,71.406,0,0,0,4.239,6.017c2.1,2.888,4.333,2.513,10.267,2.513l.331-1.344a3.639,3.639,0,0,1-2.606-1.458" transform="translate(-581.865 6577.81)" fill="#595959"/>
    <path id="Path_18149" data-name="Path 18149" d="M402.151,537.509a.775.775,0,0,0,0,1.085.731.731,0,0,0,.546.24.747.747,0,0,0,.552-.24.782.782,0,0,0-.552-1.325.764.764,0,0,0-.546.24m1.184,1.177a.865.865,0,0,1-.638.265.9.9,0,0,1,0-1.793.876.876,0,0,1,.638.262.864.864,0,0,1,.261.636.852.852,0,0,1-.261.63m-.471-.974a.44.44,0,0,0-.207-.032h-.147v.351h.156a.359.359,0,0,0,.164-.024.143.143,0,0,0,.1-.148.152.152,0,0,0-.066-.147m-.183-.156a.722.722,0,0,1,.269.038.232.232,0,0,1,.152.243.2.2,0,0,1-.1.194.288.288,0,0,1-.144.052.227.227,0,0,1,.168.1.287.287,0,0,1,.06.15v.078a.366.366,0,0,0,0,.07c0,.032,0,.05,0,.06l.008,0h-.163l0,0v-.012l0-.042v-.072a.258.258,0,0,0-.094-.234.45.45,0,0,0-.191-.03h-.135v.393h-.176v-.985Z" transform="translate(-758.525 6578.269)" fill="#595959" fill-rule="evenodd"/>
  </g>
</svg>
