<?xml version="1.0" encoding="UTF-8"?>
<svg xmlns="http://www.w3.org/2000/svg" width="24.541" height="28.631" viewBox="0 0 24.541 28.631">
  <g id="Group_3" data-name="Group 3" transform="translate(-1084.5 -7861)">
    <path id="Path_152" data-name="Path 152" d="M426.931,300.141l2.345-2.345a1.022,1.022,0,1,1,1.446,1.446l-3.068,3.068a1.022,1.022,0,0,1-1.446,0l-1.534-1.534a1.022,1.022,0,0,1,1.446-1.446l.811.811Z" transform="translate(674.696 7578.841)" fill="#fff" fill-rule="evenodd"></path>
    <path id="Path_153" data-name="Path 153" d="M374.146,227.5a6.646,6.646,0,1,0,6.646,6.646A6.646,6.646,0,0,0,374.146,227.5Zm0,2.045a4.6,4.6,0,1,1-4.6,4.6A4.6,4.6,0,0,1,374.146,229.545Z" transform="translate(728.248 7644.748)" fill="#fff" fill-rule="evenodd"></path>
    <path id="Path_154" data-name="Path 154" d="M177.045,61.586h17.383a1.023,1.023,0,1,1,0,2.045H176.022A1.022,1.022,0,0,1,175,62.609V36.022A1.022,1.022,0,0,1,176.022,35h13.293a1.023,1.023,0,0,1,.723.3l5.113,5.113a1.023,1.023,0,0,1,.3.723v2.557a1.023,1.023,0,0,1-2.045,0V41.559l-4.513-4.513H177.045Z" transform="translate(909.5 7826)" fill="#fff" fill-rule="evenodd"></path>
    <path id="Path_155" data-name="Path 155" d="M246.022,133.3h3.068a1.023,1.023,0,0,0,0-2.045h-3.068a1.023,1.023,0,0,0,0,2.045Z" transform="translate(843.591 7735.374)" fill="#fff" fill-rule="evenodd"></path>
    <path id="Path_156" data-name="Path 156" d="M246.022,220.8h5.624a1.023,1.023,0,1,0,0-2.045h-5.624a1.023,1.023,0,0,0,0,2.045Z" transform="translate(843.591 7652.987)" fill="#fff" fill-rule="evenodd"></path>
    <path id="Path_157" data-name="Path 157" d="M246.022,308.3H249.6a1.023,1.023,0,1,0,0-2.045h-3.579a1.023,1.023,0,0,0,0,2.045Z" transform="translate(843.591 7570.6)" fill="#fff" fill-rule="evenodd"></path>
    <path id="Path_158" data-name="Path 158" d="M246.022,395.8h4.6a1.023,1.023,0,0,0,0-2.045h-4.6a1.023,1.023,0,0,0,0,2.045Z" transform="translate(843.591 7488.212)" fill="#fff" fill-rule="evenodd"></path>
    <path id="Path_159" data-name="Path 159" d="M404.245,35.3a1.022,1.022,0,0,0-1.746.723v5.113a1.022,1.022,0,0,0,1.022,1.021h5.113a1.022,1.022,0,0,0,.723-1.746Zm.3,4.813h1.622l-1.622-1.622Z" transform="translate(695.294 7825.997)" fill="#fff" fill-rule="evenodd"></path>
  </g>
</svg>
