<?xml version="1.0" encoding="UTF-8"?>
<svg xmlns="http://www.w3.org/2000/svg" width="14.092" height="15.657" viewBox="0 0 14.092 15.657">
  <g id="Group_2410" data-name="Group 2410" transform="translate(-1341.482 -6561.885)">
    <g id="Group_2409" data-name="Group 2409" transform="translate(1341.733 6562.149)">
      <path id="Path_63616" data-name="Path 63616" d="M13.831,7.843c0,1.141-.006,2.28,0,3.419a.589.589,0,0,1-.341.578q-3.068,1.717-6.128,3.447a.6.6,0,0,1-.653,0Q3.644,13.546.567,11.823a.552.552,0,0,1-.319-.538q.008-3.47,0-6.939A.552.552,0,0,1,.569,3.81Q3.647,2.088,6.716.35a.591.591,0,0,1,.65,0q3.07,1.738,6.148,3.46a.552.552,0,0,1,.318.54c-.008,1.164,0,2.329,0,3.494M1.05,4.908c0,2.075,0,4.1.008,6.119a.368.368,0,0,0,.179.249c1.865,1.058,3.735,2.106,5.6,3.162a.359.359,0,0,0,.4,0q2.777-1.573,5.563-3.129a.378.378,0,0,0,.231-.383c-.01-1.914-.006-3.828-.006-5.743V4.917c-.12.064-.207.107-.292.156Q10.207,6.5,7.674,7.916a.4.4,0,0,0-.24.4c.012,1.015.008,2.03,0,3.045a.4.4,0,0,1-.4.447.408.408,0,0,1-.4-.448c0-.058,0-.116,0-.174,0-.974,0-1.947,0-2.921a.322.322,0,0,0-.2-.328Q4.316,6.748,2.19,5.545c-.368-.206-.736-.412-1.139-.639m.43-.691c.066.046.1.071.13.091Q4.249,5.79,6.885,7.277a.319.319,0,0,0,.363-.032Q9.819,5.8,12.393,4.35c.062-.035.12-.077.2-.127-.054-.037-.085-.062-.12-.081L7.2,1.17a.3.3,0,0,0-.341.017c-.671.383-1.345.76-2.017,1.139l-3.36,1.89" transform="translate(-0.247 -0.252)" fill="#fff" stroke="#fff" stroke-width="0.5"></path>
      <path id="Path_63617" data-name="Path 63617" d="M13.831,7.843c0,1.141-.006,2.28,0,3.419a.589.589,0,0,1-.341.578q-3.068,1.717-6.128,3.447a.6.6,0,0,1-.653,0Q3.644,13.546.567,11.823a.552.552,0,0,1-.319-.538q.008-3.47,0-6.939A.552.552,0,0,1,.569,3.81Q3.647,2.088,6.716.35a.591.591,0,0,1,.65,0q3.07,1.738,6.148,3.46a.552.552,0,0,1,.318.54C13.826,5.513,13.831,6.678,13.831,7.843ZM1.05,4.908c0,2.075,0,4.1.008,6.119a.368.368,0,0,0,.179.249c1.865,1.058,3.735,2.106,5.6,3.162a.359.359,0,0,0,.4,0q2.777-1.573,5.563-3.129a.378.378,0,0,0,.231-.383c-.01-1.914-.006-3.828-.006-5.743V4.917c-.12.064-.207.107-.292.156Q10.207,6.5,7.674,7.916a.4.4,0,0,0-.24.4c.012,1.015.008,2.03,0,3.045a.4.4,0,0,1-.4.447.408.408,0,0,1-.4-.448c0-.058,0-.116,0-.174,0-.974,0-1.947,0-2.921a.322.322,0,0,0-.2-.328Q4.316,6.748,2.19,5.545Zm.431-.693c.066.046.1.071.13.091Q4.249,5.79,6.885,7.277a.319.319,0,0,0,.363-.032Q9.819,5.8,12.393,4.35c.062-.035.12-.077.2-.127-.054-.037-.085-.062-.12-.081L7.2,1.17a.3.3,0,0,0-.341.017c-.671.383-1.345.76-2.017,1.139Z" transform="translate(-0.247 -0.252)" fill="none" stroke="#fff" stroke-miterlimit="10" stroke-width="0.5"></path>
      <path id="Path_63618" data-name="Path 63618" d="M10.753,20.586a.4.4,0,1,1,.4-.395.4.4,0,0,1-.4.395" transform="translate(-3.962 -7.43)" fill="#fff" stroke="#fff" stroke-width="0.5"></path>
      <path id="Path_63619" data-name="Path 63619" d="M10.753,20.586a.4.4,0,1,1,.4-.395A.4.4,0,0,1,10.753,20.586Z" transform="translate(-3.962 -7.43)" fill="none" stroke="#fff" stroke-miterlimit="10" stroke-width="0.5"></path>
    </g>
  </g>
</svg>
