<?xml version="1.0" encoding="UTF-8"?>
<svg xmlns="http://www.w3.org/2000/svg" width="29.154" height="30.6" viewBox="0 0 29.154 30.6">
  <g id="Varied_payment_gateways" data-name="Varied payment gateways" transform="translate(-287.417 -87.163)">
    <path id="Path_1850" data-name="Path 1850" d="M2218.483,1274.279a.7.7,0,0,0-.718.671,3.072,3.072,0,1,1-1.613-2.806.7.7,0,1,0,.661-1.225,4.464,4.464,0,1,0,2.343,4.078A.7.7,0,0,0,2218.483,1274.279Z" transform="translate(-1903.21 -1178.857)" fill="#fff"></path>
    <path id="Path_1851" data-name="Path 1851" d="M2228.982,1275.466a.7.7,0,0,0-.981-.1l-4.063,3.308-.836-.861a.7.7,0,0,0-1,.97l1.281,1.318a.7.7,0,0,0,.939.055l4.558-3.71A.7.7,0,0,0,2228.982,1275.466Z" transform="translate(-1912.567 -1182.722)" fill="#fff"></path>
    <path id="Path_2140" data-name="Path 2140" d="M644.327,515.7H627.133a1.589,1.589,0,0,1-1.587-1.587V503.9a1.589,1.589,0,0,1,1.587-1.587h13.416a.846.846,0,0,1,.846.846c0,.467-.379,1.112-.846,1.112h-13.31v9.468H644.22V508.18a.846.846,0,0,1,1.693,0v5.928A1.589,1.589,0,0,1,644.327,515.7Z" transform="translate(-333.035 -407.984)" fill="#fff"></path>
    <path id="Path_2141" data-name="Path 2141" d="M276.58,138.763H261.564a2.149,2.149,0,0,1-2.147-2.147V110.31a2.149,2.149,0,0,1,2.147-2.147H276.58a2.149,2.149,0,0,1,2.147,2.147v5.351a1.153,1.153,0,0,1-1.179,1.148,1.179,1.179,0,0,1-1.179-1.179v-5.11H261.775V136.4h14.592v-8.015a1.179,1.179,0,1,1,2.358,0v8.227a2.149,2.149,0,0,1-2.146,2.147Z" transform="translate(28 -21)" fill="#fff"></path>
    <path id="Path_1633" data-name="Path 1633" d="M2203.84,953.02h-6.8a1.023,1.023,0,0,0,0,2.047h6.8a1.023,1.023,0,0,0,0-2.047Z" transform="translate(-1900.914 -852.814)" fill="#fff"></path>
    <path id="Path_1634" data-name="Path 1634" d="M2236.4,953.173h.774a1.17,1.17,0,1,0,0-2.34h-.774a1.17,1.17,0,1,0,0,2.34Z" transform="translate(-1929.539 -850.681)" fill="#fff"></path>
    <path id="Path_1635" data-name="Path 1635" d="M2201.165,962.265h-4.125a1.023,1.023,0,0,0,0,2.047h4.123a1.023,1.023,0,0,0,0-2.047Z" transform="translate(-1900.914 -859.355)" fill="#fff"></path>
  </g>
</svg>
