<?xml version="1.0" encoding="UTF-8"?>
<svg xmlns="http://www.w3.org/2000/svg" width="21.037" height="30.6" viewBox="0 0 21.037 30.6">
  <g id="mCommerce-App-Design" transform="translate(0.008)">
    <path id="Path_1730" data-name="Path 1730" d="M2815.543,915.095H2796.7a1.1,1.1,0,0,0-1.1,1.1V944.6a1.1,1.1,0,0,0,1.1,1.1h18.844a1.1,1.1,0,0,0,1.1-1.1V916.188A1.1,1.1,0,0,0,2815.543,915.095Zm-17.751,5.954h16.658v18.74h-16.658Zm16.658-3.769v1.582h-16.658V917.28ZM2797.792,943.5v-1.527h16.658V943.5Z" transform="translate(-2795.608 -915.095)" fill="#fff"></path>
    <path id="Path_1810" data-name="Path 1810" d="M479.292,1248.964h3.658a1,1,0,0,0,1.007-1v-3.641a1,1,0,0,0-1.007-1h-3.659a1,1,0,0,0-1.007,1v3.637a1,1,0,0,0,1.007,1Zm1.007-3.637h1.644v1.635H480.3Z" transform="translate(-474.147 -1234.702)" fill="#fff"></path>
    <path id="Path_1811" data-name="Path 1811" d="M504.292,1248.964h3.659a1,1,0,0,0,1.007-1v-3.641a1,1,0,0,0-1.007-1h-3.659a1,1,0,0,0-1.007,1v3.637a1,1,0,0,0,1.007,1Zm1.007-3.637h1.644v1.635H505.3Z" transform="translate(-491.957 -1234.702)" fill="#fff"></path>
    <path id="Path_1812" data-name="Path 1812" d="M479.292,1274.964h3.658a1,1,0,0,0,1.007-1v-3.641a1,1,0,0,0-1.007-1h-3.659a1,1,0,0,0-1.007,1v3.637a1,1,0,0,0,1.007,1Zm1.007-3.637h1.644v1.635H480.3Z" transform="translate(-474.147 -1253.266)" fill="#fff"></path>
    <path id="Path_1813" data-name="Path 1813" d="M504.292,1274.964h3.659a1,1,0,0,0,1.007-1v-3.641a1,1,0,0,0-1.007-1h-3.659a1,1,0,0,0-1.007,1v3.637a1,1,0,0,0,1.007,1Zm1.007-3.637h1.644v1.635H505.3Z" transform="translate(-491.957 -1253.266)" fill="#fff"></path>
  </g>
</svg>
